<svg xmlns="http://www.w3.org/2000/svg" width="288" height="288" viewBox="0 0 288 288"><g transform="translate(-442 -365)"><rect width="288" height="288" rx="45" transform="translate(442 365)" fill="#b337c1"/><path d="M6-1179c0-73.337,59.663-133,133-133s133,59.664,133,133-59.664,133-133,133S6-1105.664,6-1179Z" transform="translate(447 1688)" fill="#fff" stroke="rgba(0,0,0,0)" stroke-width="1"/><path d="M55.26.9a11.553,11.553,0,0,1-8.55-3.15,11.313,11.313,0,0,1-3.15-8.37v-97.2H10.8Q0-107.82,0-117.36t10.8-9.54H99.54q10.8,0,10.8,9.54t-10.8,9.54H66.78v97.2a11.313,11.313,0,0,1-3.15,8.37A11.313,11.313,0,0,1,55.26.9Z" transform="translate(531 626)" fill="#b337c1"/><g transform="translate(447 370)" fill="none"><path d="M139,0A139,139,0,1,1,0,139,139,139,0,0,1,139,0Z" stroke="none"/><path d="M 139 12 C 68.97195434570312 12 12 68.97195434570312 12 139 C 12 209.0280456542969 68.97195434570312 266 139 266 C 209.0280456542969 266 266 209.0280456542969 266 139 C 266 68.97195434570312 209.0280456542969 12 139 12 M 139 0 C 215.7675476074219 0 278 62.23240661621094 278 139 C 278 215.7675476074219 215.7675476074219 278 139 278 C 62.23240661621094 278 0 215.7675476074219 0 139 C 0 62.23240661621094 62.23240661621094 0 139 0 Z" stroke="none" fill="#b337c1"/></g><path d="M0,0,1,94" transform="translate(586.5 382.5)" fill="none" stroke="#b337c1" stroke-linecap="round" stroke-width="20"/><path d="M30.483,0H0" transform="translate(474.017 509)" fill="none" stroke="#b337c1" stroke-linecap="round" stroke-width="20"/><path d="M30.483,0H0" transform="translate(474.017 509)" fill="none" stroke="#b337c1" stroke-linecap="round" stroke-width="20"/><path d="M30.483,0H0" transform="translate(491.3 565.621) rotate(-30)" fill="none" stroke="#b337c1" stroke-linecap="round" stroke-width="20"/><path d="M30.483,0H0" transform="translate(529.879 604.899) rotate(-60)" fill="none" stroke="#b337c1" stroke-linecap="round" stroke-width="20"/><path d="M64.533,0H0" transform="translate(505.99 431.219) rotate(45)" fill="none" stroke="#b337c1" stroke-linecap="round" stroke-width="20"/><path d="M112.237,245.753S164.9,305.208,164.9,371.906,112.237,498.82,112.237,498.82" transform="translate(493.379 135.931)" fill="none" stroke="#b337c1" stroke-linecap="round" stroke-width="20"/><path d="M481.771,609.72c4.853,0-4.993.132,0,0,54.911-1.45,106.319-21.242,106.319-21.242" transform="translate(107.21 -147.978)" fill="none" stroke="#b337c1" stroke-linecap="round" stroke-width="20"/><path d="M438.3,628.611a356.247,356.247,0,0,1-39.4,4.233c-23.6,1.352-14.949,0-14.949,0" transform="translate(276.138 -120.111)" fill="none" stroke="#b337c1" stroke-linecap="round" stroke-width="20"/><path d="M34.32-7.52q4.48,0,4.48,3.76A3.51,3.51,0,0,1,37.68-1a4.911,4.911,0,0,1-3.36,1H7.6A4.441,4.441,0,0,1,4.32-1.28,4.153,4.153,0,0,1,3.04-4.32,5.351,5.351,0,0,1,4.48-7.84L25.04-31.6H7.2a5.052,5.052,0,0,1-3.36-.96,3.485,3.485,0,0,1-1.12-2.8,3.485,3.485,0,0,1,1.12-2.8,5.052,5.052,0,0,1,3.36-.96H33.04a4.487,4.487,0,0,1,3.32,1.24A4.182,4.182,0,0,1,37.6-34.8a5.315,5.315,0,0,1-1.36,3.52L15.6-7.52Z" transform="translate(597 563)" fill="#b337c1"/><path d="M399.19,626.7s-12.264,4.282-16.7,5.129-3.444,1.7-3.444,1.7" transform="matrix(0.839, -0.545, 0.545, 0.839, -70.536, 314.632)" fill="none" stroke="#b337c1" stroke-width="5"/><g transform="translate(383.204 127.783)" fill="none"><path d="M251.957,473.745v0h0l9.172-20.6a153.763,153.763,0,0,0,60.906-18.924l-12.409,27.872A174.72,174.72,0,0,1,251.957,473.745Z" stroke="none"/><path d="M 251.9572601318359 473.7449645996094 L 251.9571990966797 473.7429504394531 L 251.9588165283203 473.7428894042969 L 261.1305236816406 453.1410217285156 C 282.6735534667969 451.1148681640625 303.1649169921875 444.7480163574219 322.0361938476562 434.2167053222656 L 309.626708984375 462.0887145996094 C 291.2198791503906 469.2022705078125 271.8172607421875 473.1238098144531 251.9572601318359 473.7449645996094 Z" stroke="none" fill="#b337c1"/></g></g></svg>